<?xml version="1.0" encoding="UTF-8"?>
<svg width="337px" height="99px" viewBox="0 0 337 99" version="1.1" xmlns="http://www.w3.org/2000/svg" xmlns:xlink="http://www.w3.org/1999/xlink">
    <title>logo_vector</title>
    <g id="logo_vector" stroke="none" stroke-width="1" fill="none" fill-rule="evenodd">
        <path d="M31.46,78.21 C36.08,67.87 41.47,57.31 50.6,48.18 C57.75,41.03 61.49,39.82 62.37,40.15 C64.02,40.7 54.23,53.02 50.16,62.15 C46.09,71.17 49.61,78.76 59.18,78.76 C65.56,78.76 72.6,73.26 75.68,66.99 C76.89,64.46 77.22,60.83 76.67,60.06 C76.12,59.29 75.24,59.29 74.69,60.28 C70.4,67.98 65.45,75.24 60.94,75.35 C56.98,75.46 55.44,70.4 58.52,64.13 C61.27,58.63 66.66,51.37 68.64,46.42 C70.84,40.92 69.96,34.43 66,34.32 C62.37,34.21 55,39.38 49.72,44.55 C51.15,39.71 49.17,33.88 45.43,33.77 C41.47,33.66 33.22,40.15 28.38,45.76 C30.03,41.36 30.36,37.07 28.49,33.99 C27.83,32.89 26.95,32.78 26.18,33.99 C19.25,44.33 11.22,59.84 8.91,66.77 C7.04,72.38 7.59,76.01 10.01,78.1 C11,78.98 11.66,78.54 12.1,77.55 C16.5,67.21 21.78,56.98 28.27,49.94 C35.31,42.24 40.7,39.27 42.02,39.82 C44.22,40.59 32.34,55.77 28.71,64.9 C25.52,72.82 27.06,77.11 28.93,78.76 C29.92,79.86 30.8,79.53 31.46,78.21 Z M120.67,77.99 C131.12,61.38 141.13,50.93 146.52,44 C149.93,39.71 151.36,36.85 151.03,34.54 C150.81,33.11 150.26,32.89 149.05,34.1 C141.57,41.8 127.16,60.61 119.35,73.48 C120.78,61.71 122.87,55.66 124.96,47.3 C126.61,40.7 125.95,36.74 122.32,33.66 C121.44,32.89 120.45,32.89 120.01,34.54 C117.92,42.46 114.51,49.61 108.35,51.15 C108.35,50.6 108.46,50.16 108.46,49.83 C109.01,41.69 105.71,41.03 103.18,37.73 C100.87,34.65 99.11,33.77 95.81,33.99 C89.21,34.43 82.39,40.59 78.21,48.18 C73.37,56.98 71.61,66.44 76.56,72.93 C80.96,78.76 86.13,78.98 90.31,77.66 C98.56,75.13 105.38,63.69 107.58,54.34 C110.66,54.01 113.85,52.8 115.83,50.6 C114.4,57.75 113.19,64.68 112.97,69.08 C112.75,74.8 114.18,77 118.36,79.09 C119.57,79.64 120.12,78.87 120.67,77.99 Z M101.31,49.83 C99.22,47.96 98.23,45.21 98.67,42.35 C99.11,39.16 101.53,38.5 101.97,41.91 C102.19,43.89 102.08,46.64 101.31,49.83 Z M81.4,73.26 C78.43,70.84 80.08,60.83 84.81,52.58 C87.23,48.4 90.31,44.55 93.28,42.13 C93.28,46.64 96.8,50.93 100.43,52.91 C99.55,55.66 98.23,58.74 96.47,61.93 C91.08,71.94 84.37,75.68 81.4,73.26 Z M159.94,78.76 C168.41,78.65 176.88,73.59 181.5,66.88 C183.48,64.02 183.81,60.94 183.37,60.06 C182.93,59.07 182.05,59.07 181.5,59.95 C176.77,67.21 168.74,76.01 159.61,75.57 C153.78,75.24 151.14,68.31 154.66,58.19 C162.36,64.46 169.73,61.6 175.12,55 C179.74,49.39 180.62,42.68 178.64,40.04 C176.88,37.62 174.9,35.97 172.15,34.32 C166.65,31.13 155.43,36.85 148.28,51.04 C141.13,65.23 145.97,78.98 159.94,78.76 Z M155.65,55.77 C155.87,55.22 156.2,54.56 156.53,53.9 C161.7,43.45 170.83,36.85 173.14,38.72 C174.68,39.93 172.26,45.65 168.74,50.27 C165.55,54.45 161.04,59.18 155.65,55.77 Z M207.13,66.11 C208.23,63.58 208.78,61.6 208.23,59.84 C207.79,58.3 206.58,58.52 205.92,59.84 C201.85,68.09 195.58,75.9 190.63,75.68 C186.01,75.46 184.8,68.64 188.43,60.61 C192.61,51.37 198.88,40.7 203.17,33.33 C205.92,32.89 209.33,32.56 211.75,32.89 C213.4,32.89 213.84,32.12 213.07,30.8 C212.19,29.37 210.54,27.39 206.25,27.5 C208.89,21.78 208.89,18.15 207.68,15.07 C207.13,13.75 206.03,13.64 205.04,15.07 C203.17,17.49 200.09,22.66 196.68,28.71 C193.71,29.04 190.63,29.26 187.55,29.15 C185.9,29.04 185.24,29.81 186.34,31.35 C187.22,32.56 189.75,34.21 193.49,34.21 C188.76,42.9 184.14,52.14 181.83,57.64 C176.55,70.29 182.38,78.43 189.64,78.65 C198.44,78.98 205.7,69.3 207.13,66.11 Z M220.55,77.99 C228.69,75.24 235.62,64.13 237.93,54.78 C239.03,54.67 240.13,54.23 240.9,53.35 C241.34,52.8 241.34,52.25 240.57,52.25 C239.69,52.25 239.03,52.47 238.37,52.47 C238.48,51.59 238.48,50.82 238.59,49.94 C239.25,42.02 235.95,41.25 233.42,37.84 C231.22,34.87 229.35,33.88 225.94,34.1 C219.34,34.54 212.63,40.92 208.45,48.4 C203.5,57.2 201.85,66.77 206.69,73.15 C211.09,78.87 216.59,79.31 220.55,77.99 Z M231.44,50.38 C229.68,48.73 228.47,45.54 229.02,42.57 C229.57,39.38 231.77,38.72 232.32,42.24 C232.65,44.22 232.32,46.97 231.44,50.38 Z M211.64,73.59 C208.78,71.17 210.43,61.05 215.05,52.69 C217.36,48.51 220.55,44.88 223.52,42.35 C223.63,46.42 226.27,50.27 228.58,52.03 C229.24,52.58 229.9,53.02 230.67,53.35 C229.79,55.99 228.47,59.07 226.82,62.15 C221.43,72.27 214.72,76.12 211.64,73.59 Z M254.32,75.02 C255.53,72.05 254.87,69.19 252.67,68.42 C250.47,67.65 247.72,69.3 246.4,72.27 C245.19,74.91 245.85,78.1 248.05,78.87 C250.25,79.64 253.11,77.88 254.32,75.02 Z M293.04,66.22 C294.25,63.58 294.69,61.16 294.14,59.4 C293.7,57.86 292.49,57.97 291.72,59.4 C287.43,67.87 279.73,75.79 274.45,75.35 C269.5,74.91 270.71,65.78 275.11,55 C284.9,48.62 297.22,35.42 300.63,21.89 C301.95,16.72 301.29,12.65 298.1,9.79 C296.56,8.36 295.02,8.58 293.37,10.34 C282.15,22 269.61,41.91 265.54,61.05 C263.01,72.93 267.08,78.21 274.67,78.43 C283.47,78.65 291.5,69.52 293.04,66.22 Z M277.09,50.27 C277.86,48.51 278.74,46.75 279.73,44.99 C287.32,30.91 295.46,18.7 296.89,19.58 C298.32,20.46 292.16,38.06 277.09,50.27 Z M298.54,78.1 C309.1,61.38 319.11,50.82 324.61,43.89 C328.13,39.49 329.45,36.63 329.12,34.32 C328.9,32.89 328.24,32.67 327.03,33.88 C319.55,41.58 304.92,60.94 297.11,73.81 C298.65,61.82 300.85,55.66 302.83,47.19 C304.37,40.48 303.82,36.41 300.19,33.33 C299.31,32.56 298.43,33 297.99,34.21 C294.25,45.65 291.28,61.38 290.84,69.08 C290.51,74.91 292.05,77.11 296.34,79.2 C297.44,79.75 297.99,78.98 298.54,78.1 Z" id="moeto.lv" fill="#000000" fill-rule="nonzero"></path>
    </g>
</svg>